<svg width="19" height="6" viewBox="0 0 19 6" fill="none" xmlns="http://www.w3.org/2000/svg">
<path d="M18.8932 3.28543C18.9626 3.2069 19 3.10118 19 2.99849C19 2.8958 18.9653 2.79008 18.8932 2.71155L16.6027 0.120061C16.4612 -0.0400198 16.2343 -0.0400197 16.0928 0.120061C15.9513 0.280141 15.9513 0.536875 16.0928 0.696955L17.7693 2.59074L0.360395 2.71155C0.160176 2.71155 -1.35821e-07 2.89278 -1.25919e-07 3.11931C-1.16017e-07 3.34583 0.160176 3.52706 0.360395 3.52706L17.7693 3.40624L16.0928 5.30304C15.9513 5.46313 15.9513 5.71986 16.0928 5.87994C16.2343 6.04002 16.4612 6.04002 16.6027 5.87994L18.8932 3.28543Z" fill="#2F1EED"/>
</svg>
