<svg width="14" height="14" viewBox="0 0 14 14" fill="none" xmlns="http://www.w3.org/2000/svg">
<path d="M12.8333 0.933333H11.2V0.233333C11.2 0.1043 11.0957 0 10.9667 0H9.33333C9.2043 0 9.1 0.1043 9.1 0.233333V0.933333H3.96667V0.233333C3.96667 0.1043 3.86237 0 3.73333 0H2.1C1.97097 0 1.86667 0.1043 1.86667 0.233333V0.933333H0.233333C0.1043 0.933333 0 1.03763 0 1.16667V3.73333V13.7667C0 13.8957 0.1043 14 0.233333 14H12.8333C12.9624 14 13.0667 13.8957 13.0667 13.7667V3.73333V1.16667C13.0667 1.03763 12.9624 0.933333 12.8333 0.933333ZM9.56667 0.466667H10.7333V1.16667V1.86667H9.56667V1.16667V0.466667ZM2.33333 0.466667H3.5V1.16667V1.86667H2.33333V1.16667V0.466667ZM0.466667 1.4H1.86667V2.1C1.86667 2.22903 1.97097 2.33333 2.1 2.33333H3.73333C3.86237 2.33333 3.96667 2.22903 3.96667 2.1V1.4H9.1V2.1C9.1 2.22903 9.2043 2.33333 9.33333 2.33333H10.9667C11.0957 2.33333 11.2 2.22903 11.2 2.1V1.4H12.6V3.5H0.466667V1.4ZM0.466667 13.5333V3.96667H12.6V13.5333H0.466667Z" fill="#B0B0B0"/>
<path d="M8.39998 5.36667H6.76664H6.29998H4.66664H4.19998H2.09998V7.46667V7.93334V9.56667V10.0333V12.1333H4.19998H4.66664H6.29998H6.76664H8.39998H8.86664H10.9666V10.0333V9.56667V7.93334V7.46667V5.36667H8.86664H8.39998ZM6.76664 5.83334H8.39998V7.46667H6.76664V5.83334ZM8.39998 9.56667H6.76664V7.93334H8.39998V9.56667ZM4.66664 7.93334H6.29998V9.56667H4.66664V7.93334ZM4.66664 5.83334H6.29998V7.46667H4.66664V5.83334ZM2.56664 5.83334H4.19998V7.46667H2.56664V5.83334ZM2.56664 7.93334H4.19998V9.56667H2.56664V7.93334ZM4.19998 11.6667H2.56664V10.0333H4.19998V11.6667ZM6.29998 11.6667H4.66664V10.0333H6.29998V11.6667ZM8.39998 11.6667H6.76664V10.0333H8.39998V11.6667ZM10.5 11.6667H8.86664V10.0333H10.5V11.6667ZM10.5 9.56667H8.86664V7.93334H10.5V9.56667ZM10.5 5.83334V7.46667H8.86664V5.83334H10.5Z" fill="#B0B0B0"/>
</svg>
