<svg width="23" height="22" viewBox="0 0 23 22" fill="none" xmlns="http://www.w3.org/2000/svg">
<g clip-path="url(#clip0)">
<path d="M20.8773 22H1.91176C1.0773 22 0.394531 21.3172 0.394531 20.4828V1.51723C0.394531 0.682773 1.0773 0 1.91176 0H20.8773C21.7118 0 22.3945 0.682773 22.3945 1.51723V20.4828C22.3945 21.3172 21.7118 22 20.8773 22Z" fill="#4D6FA9"/>
<path d="M18.98 3.79254V7.58566H15.5662C15.149 7.58566 14.8076 7.92704 14.8076 8.34427V10.6202H18.6007V14.4133H14.8076V21.9995H11.0145V14.4132H7.97998V10.6201H11.0145V8.34423C11.0145 5.95456 12.8351 3.98216 15.1869 3.7925H18.98V3.79254Z" fill="white"/>
</g>
<defs>
<clipPath id="clip0">
<rect x="0.394531" width="22" height="22" fill="white"/>
</clipPath>
</defs>
</svg>
