<svg width="13" height="13" viewBox="0 0 13 13" fill="none" xmlns="http://www.w3.org/2000/svg">
<path d="M12.8851 12.337L9.72593 9.17783C10.5734 8.20355 11.0865 6.93237 11.0865 5.54302C11.0865 2.4847 8.59888 0 5.54344 0C2.48513 0 0.000427246 2.48758 0.000427246 5.54302C0.000427246 8.59845 2.48801 11.086 5.54344 11.086C6.9328 11.086 8.20398 10.5729 9.17825 9.7255L12.3375 12.8847C12.4124 12.9596 12.5133 13 12.6113 13C12.7093 13 12.8102 12.9625 12.8851 12.8847C13.035 12.7348 13.035 12.4869 12.8851 12.337ZM0.775815 5.54302C0.775815 2.91419 2.91462 0.778271 5.54056 0.778271C8.16938 0.778271 10.3053 2.91707 10.3053 5.54302C10.3053 8.16896 8.16938 10.3106 5.54056 10.3106C2.91462 10.3106 0.775815 8.17184 0.775815 5.54302Z" fill="#C4C4C4"/>
</svg>
