<svg width="24" height="24" viewBox="0 0 24 24" fill="none" xmlns="http://www.w3.org/2000/svg">
<path d="M16.8468 17.2022C16.6268 17.1754 16.4284 17.333 16.4028 17.5526C16.3772 17.7722 16.534 17.971 16.7532 17.9966C20.9596 18.4918 23.2 19.8262 23.2 20.5994C23.2 21.685 18.9392 23.1994 12 23.1994C5.0608 23.1994 0.8 21.685 0.8 20.5994C0.8 19.8262 3.0404 18.4918 7.2468 17.9966C7.466 17.971 7.6228 17.7718 7.5972 17.5526C7.5712 17.333 7.3728 17.1746 7.1532 17.2022C2.9416 17.6982 0 19.095 0 20.5994C0 22.289 4.122 23.9994 12 23.9994C19.878 23.9994 24 22.289 24 20.5994C24 19.095 21.0584 17.6982 16.8468 17.2022Z" fill="#2F1EED"/>
<path d="M11.9286 21.9028L18.065 13.04C20.3666 9.9716 20.0338 4.928 17.3526 2.2472C15.9038 0.798 13.9774 0 11.9286 0C9.87983 0 7.95343 0.798 6.50463 2.2468C3.82343 4.9276 3.49063 9.9712 5.78303 13.0276L11.9286 21.9028ZM11.9994 4.8C13.5434 4.8 14.7994 6.0564 14.7994 7.6C14.7994 9.1436 13.5434 10.4 11.9994 10.4C10.4554 10.4 9.19943 9.1436 9.19943 7.6C9.19943 6.0564 10.4554 4.8 11.9994 4.8Z" fill="#2F1EED"/>
</svg>
