<svg width="36" height="24" viewBox="0 0 36 24" fill="none" xmlns="http://www.w3.org/2000/svg">
<path d="M32.6667 0H11.3333C10.596 0 10 0.597333 10 1.33333C10 2.06933 10.596 2.66667 11.3333 2.66667H32.6667C33.404 2.66667 34 2.06933 34 1.33333C34 0.597333 33.404 0 32.6667 0Z" fill="black"/>
<path d="M33.3333 10.6667H1.33333C0.596 10.6667 0 11.264 0 12C0 12.736 0.596 13.3334 1.33333 13.3334H33.3333C34.0707 13.3334 34.6667 12.736 34.6667 12C34.6667 11.264 34.0707 10.6667 33.3333 10.6667Z" fill="black"/>
<path d="M33.3333 21.3333H5.33333C4.596 21.3333 4 21.9306 4 22.6666C4 23.4026 4.596 24 5.33333 24H33.3333C34.0707 24 34.6667 23.4026 34.6667 22.6666C34.6667 21.9306 34.0707 21.3333 33.3333 21.3333Z" fill="black"/>
</svg>
